<?xml version="1.0" standalone="no"?>
<!DOCTYPE svg PUBLIC "-//W3C//DTD SVG 20010904//EN"
 "http://www.w3.org/TR/2001/REC-SVG-20010904/DTD/svg10.dtd">
<svg version="1.0" xmlns="http://www.w3.org/2000/svg"
 width="498.000000pt" height="501.000000pt" viewBox="0 0 498.000000 501.000000"
 preserveAspectRatio="xMidYMid meet">

<g transform="translate(0.000000,501.000000) scale(0.100000,-0.100000)"
fill="#000000" stroke="none">
<path d="M1094 4736 c-49 -13 -135 -41 -190 -62 l-99 -38 -267 -266 -268 -265
0 -883 0 -882 95 0 95 0 0 838 0 838 63 62 c34 34 71 62 82 62 11 0 53 -34 96
-76 64 -63 81 -76 101 -71 12 4 162 146 332 316 291 292 308 311 302 338 -9
36 -52 82 -93 99 -47 20 -146 16 -249 -10z"/>
<path d="M1634 4330 c3 -8 19 -82 36 -165 40 -194 36 -182 75 -195 26 -9 41
-8 68 4 42 17 57 41 57 92 0 34 -10 47 -120 158 -66 67 -118 114 -116 106z"/>
<path d="M2243 4120 c40 -194 71 -327 79 -337 17 -22 73 -26 106 -9 39 20 52
44 52 91 0 34 -10 47 -121 158 -90 91 -119 116 -116 97z"/>
<path d="M1233 3911 c4 -14 20 -93 38 -177 28 -136 34 -153 56 -163 70 -32
143 17 143 96 0 20 -28 54 -121 147 -86 86 -120 114 -116 97z"/>
<path d="M1840 3723 c0 -6 15 -85 34 -174 38 -177 44 -189 104 -189 47 0 71
16 88 57 24 55 6 86 -116 208 -61 60 -110 105 -110 98z"/>
<path d="M1436 3305 c3 -16 20 -97 37 -180 31 -142 34 -151 61 -164 65 -31
136 22 136 100 0 28 -17 49 -120 153 -103 104 -119 117 -114 91z"/>
<path d="M196 2125 c-89 -31 -150 -140 -128 -226 21 -83 84 -144 162 -157 l44
-7 17 -115 c55 -376 187 -651 425 -882 130 -126 274 -218 454 -289 l110 -43 0
-109 c0 -119 6 -139 50 -162 35 -18 255 -21 293 -4 38 17 57 60 57 131 l0 63
809 0 809 0 4 -72 c3 -64 7 -76 31 -100 27 -27 31 -28 153 -31 199 -6 214 6
214 173 l0 111 110 43 c492 194 797 598 879 1163 l17 123 44 7 c114 20 190
138 160 249 -15 56 -80 123 -135 138 -29 8 -672 11 -2290 11 -1888 -1 -2256
-3 -2289 -15z"/>
</g>
</svg>
