<?xml version="1.0" standalone="no"?>
<!DOCTYPE svg PUBLIC "-//W3C//DTD SVG 20010904//EN"
 "http://www.w3.org/TR/2001/REC-SVG-20010904/DTD/svg10.dtd">
<svg version="1.0" xmlns="http://www.w3.org/2000/svg"
 width="225.000000pt" height="225.000000pt" viewBox="0 0 225.000000 225.000000"
 preserveAspectRatio="xMidYMid meet">

<g transform="translate(0.000000,225.000000) scale(0.100000,-0.100000)"
fill="#000000" stroke="none">
<path d="M17 1872 c-16 -17 -17 -83 -17 -749 0 -718 0 -730 20 -748 17 -15 24
-16 45 -7 l25 12 0 185 0 185 1035 0 1035 0 0 -185 0 -185 25 -12 c21 -9 28
-8 45 7 20 18 20 30 20 567 0 360 -4 556 -10 569 -12 21 -50 25 -68 7 -8 -8
-12 -50 -12 -125 l0 -113 -1035 0 -1035 0 0 295 c0 281 -1 295 -19 305 -27 14
-35 13 -54 -8z m2099 -917 c15 -23 15 -27 0 -50 l-16 -25 -975 0 -975 0 -16
25 c-15 23 -15 27 0 50 l16 25 975 0 975 0 16 -25z"/>
<path d="M209 1513 c-40 -24 -59 -65 -59 -122 l0 -51 310 0 310 0 0 40 c0 53
-21 101 -55 128 -27 21 -37 22 -254 22 -191 0 -230 -3 -252 -17z"/>
</g>
</svg>
