<?xml version="1.0" standalone="no"?>
<!DOCTYPE svg PUBLIC "-//W3C//DTD SVG 20010904//EN"
 "http://www.w3.org/TR/2001/REC-SVG-20010904/DTD/svg10.dtd">
<svg version="1.0" xmlns="http://www.w3.org/2000/svg"
 width="598.000000pt" height="417.000000pt" viewBox="0 0 598.000000 417.000000"
 preserveAspectRatio="xMidYMid meet">

<g transform="translate(0.000000,417.000000) scale(0.100000,-0.100000)"
fill="#000000" stroke="none">
<path d="M3410 4147 c-224 -67 -381 -219 -454 -439 -38 -113 -36 -125 29 -176
92 -72 189 -215 236 -348 50 -143 62 -360 32 -583 l-16 -125 43 -37 c175 -150
502 -175 710 -53 197 115 330 326 403 639 38 162 51 288 44 439 -6 154 -22
218 -82 342 -66 137 -154 225 -296 295 -114 57 -181 69 -389 68 -162 0 -194
-3 -260 -22z"/>
<path d="M2276 3560 c-104 -13 -164 -29 -244 -66 -182 -83 -299 -222 -364
-434 -21 -68 -23 -93 -23 -280 1 -174 4 -221 23 -310 90 -418 270 -666 545
-752 102 -33 272 -33 374 0 258 81 434 305 522 662 114 459 51 809 -181 1015
-69 61 -212 129 -312 149 -99 20 -251 27 -340 16z"/>
<path d="M4235 2339 c-126 -129 -312 -206 -521 -216 -172 -9 -326 30 -471 118
l-62 37 -12 -36 c-6 -21 -34 -84 -61 -141 -27 -57 -46 -107 -41 -112 19 -18
119 -62 254 -110 228 -81 323 -140 405 -252 113 -152 178 -375 235 -797 11
-85 22 -156 23 -157 6 -7 194 21 360 52 345 66 634 149 696 201 42 36 53 80
45 187 -24 345 -78 649 -145 822 -75 196 -150 259 -422 354 -65 22 -140 52
-167 66 -28 14 -56 25 -63 25 -7 0 -31 -19 -53 -41z"/>
<path d="M1660 1853 c-30 -14 -111 -45 -178 -69 -68 -24 -151 -58 -185 -76
-115 -61 -196 -168 -261 -340 -79 -210 -165 -822 -136 -965 13 -62 60 -123
119 -153 131 -66 588 -179 921 -227 180 -26 730 -26 910 0 341 49 731 146 895
222 120 55 147 104 146 258 -1 233 -65 638 -132 847 -52 158 -151 292 -262
354 -34 19 -127 58 -207 86 -80 29 -162 61 -184 72 l-38 20 -84 -84 c-110
-109 -200 -168 -322 -208 -84 -29 -114 -34 -228 -38 -269 -10 -474 71 -642
254 -38 40 -70 74 -73 73 -2 0 -29 -12 -59 -26z"/>
</g>
</svg>
